{"asset":{"version":"2.0","generator":"gltfpack 1.0"},"extensionsUsed":["KHR_mesh_quantization"],"extensionsRequired":["KHR_mesh_quantization"],"buffers":[{"uri":"AssemblageOptimized.bin","byteLength":184344}],"bufferViews":[{"buffer":0,"byteOffset":0,"byteLength":41540,"byteStride":4,"target":34962},{"buffer":0,"byteOffset":41540,"byteLength":83080,"byteStride":8,"target":34962},{"buffer":0,"byteOffset":124620,"byteLength":59724,"target":34963}],"accessors":[{"bufferView":0,"byteOffset":0,"componentType":5120,"count":464,"type":"VEC3","normalized":true},{"bufferView":1,"byteOffset":0,"componentType":5123,"count":464,"type":"VEC3","min":[1838,6318,303],"max":[2458,6937,716]},{"bufferView":2,"byteOffset":0,"componentType":5123,"count":1380,"type":"SCALAR"},{"bufferView":0,"byteOffset":1856,"componentType":5120,"count":406,"type":"VEC3","normalized":true},{"bufferView":1,"byteOffset":3712,"componentType":5123,"count":406,"type":"VEC3","min":[197,5304,103],"max":[813,5920,419]},{"bufferView":2,"byteOffset":2760,"componentType":5123,"count":1008,"type":"SCALAR"},{"bufferView":0,"byteOffset":3480,"componentType":5120,"count":24,"type":"VEC3","normalized":true},{"bufferView":1,"byteOffset":6960,"componentType":5123,"count":24,"type":"VEC3","min":[2200,979,169],"max":[6692,3475,772]},{"bufferView":2,"byteOffset":4776,"componentType":5123,"count":36,"type":"SCALAR"},{"bufferView":0,"byteOffset":3576,"componentType":5120,"count":8168,"type":"VEC3","normalized":true},{"bufferView":1,"byteOffset":7152,"componentType":5123,"count":8168,"type":"VEC3","min":[505,0,0],"max":[8271,15867,1225]},{"bufferView":2,"byteOffset":4848,"componentType":5123,"count":23931,"type":"SCALAR"},{"bufferView":0,"byteOffset":36248,"componentType":5120,"count":602,"type":"VEC3","normalized":true},{"bufferView":1,"byteOffset":72496,"componentType":5123,"count":602,"type":"VEC3","min":[0,4543,716],"max":[8788,16383,1294]},{"bufferView":2,"byteOffset":52710,"componentType":5123,"count":1776,"type":"SCALAR"},{"bufferView":0,"byteOffset":38656,"componentType":5120,"count":142,"type":"VEC3","normalized":true},{"bufferView":1,"byteOffset":77312,"componentType":5123,"count":142,"type":"VEC3","min":[0,4543,716],"max":[8788,16383,1294]},{"bufferView":2,"byteOffset":56262,"componentType":5123,"count":414,"type":"SCALAR"},{"bufferView":0,"byteOffset":39224,"componentType":5120,"count":372,"type":"VEC3","normalized":true},{"bufferView":1,"byteOffset":78448,"componentType":5123,"count":372,"type":"VEC3","min":[1942,680,750],"max":[7040,4440,854]},{"bufferView":2,"byteOffset":57090,"componentType":5123,"count":978,"type":"SCALAR"},{"bufferView":0,"byteOffset":40712,"componentType":5120,"count":67,"type":"VEC3","normalized":true},{"bufferView":1,"byteOffset":81424,"componentType":5123,"count":67,"type":"VEC3","min":[5818,3755,750],"max":[7040,4440,819]},{"bufferView":2,"byteOffset":59046,"componentType":5123,"count":111,"type":"SCALAR"},{"bufferView":0,"byteOffset":40980,"componentType":5120,"count":140,"type":"VEC3","normalized":true},{"bufferView":1,"byteOffset":81960,"componentType":5123,"count":140,"type":"VEC3","min":[6571,1285,905],"max":[6906,3328,967]},{"bufferView":2,"byteOffset":59268,"componentType":5123,"count":228,"type":"SCALAR"}],"materials":[{"name":"0.647059_0.647059_0.647059_0.000000_0.000000","pbrMetallicRoughness":{"baseColorFactor":[0.647058845,0.647058845,0.647058845,1],"metallicFactor":0},"doubleSided":true},{"name":"0.901961_0.901961_0.901961_0.000000_0.000000","pbrMetallicRoughness":{"baseColorFactor":[0.90196079,0.90196079,0.90196079,1],"metallicFactor":0},"doubleSided":true},{"name":"0.262745_0.282353_0.301961_0.000000_0.000000","pbrMetallicRoughness":{"baseColorFactor":[0.262745112,0.282352954,0.301960796,1],"metallicFactor":0},"doubleSided":true},{"name":"0.000000_0.000000_0.000000_0.000000_0.000000","pbrMetallicRoughness":{"baseColorFactor":[0,0,0,1],"metallicFactor":0},"doubleSided":true},{"name":"0.301961_0.290196_0.262745_0.000000_0.000000","pbrMetallicRoughness":{"baseColorFactor":[0.301960796,0.290196091,0.262745112,1],"metallicFactor":0},"doubleSided":true},{"name":"0.156863_0.152941_0.149020_0.000000_0.000000","pbrMetallicRoughness":{"baseColorFactor":[0.156862751,0.152941182,0.149019614,1],"metallicFactor":0},"doubleSided":true},{"name":"0.623529_0.666667_0.701961_0.000000_0.000000","pbrMetallicRoughness":{"baseColorFactor":[0.623529434,0.666666687,0.701960802,1],"metallicFactor":0},"doubleSided":true}],"meshes":[{"primitives":[{"attributes":{"NORMAL":0,"POSITION":1},"indices":2,"material":0}]},{"primitives":[{"attributes":{"NORMAL":3,"POSITION":4},"indices":5,"material":1}]},{"primitives":[{"attributes":{"NORMAL":6,"POSITION":7},"indices":8,"material":2},{"attributes":{"NORMAL":9,"POSITION":10},"indices":11,"material":3},{"attributes":{"NORMAL":12,"POSITION":13},"indices":14,"material":4},{"attributes":{"NORMAL":15,"POSITION":16},"indices":17,"material":5},{"attributes":{"NORMAL":18,"POSITION":19},"indices":20,"material":0},{"attributes":{"NORMAL":21,"POSITION":22},"indices":23,"material":6},{"attributes":{"NORMAL":24,"POSITION":25},"indices":26,"material":1}]}],"nodes":[{"mesh":0,"translation":[-0.0146600008,-0.171999991,-0.00299999956],"scale":[2.90545067e-05,2.90545067e-05,2.90545067e-05]},{"mesh":0,"translation":[-0.0146600008,-0.171999991,-0.00299999956],"scale":[2.90545067e-05,2.90545067e-05,2.90545067e-05]},{"mesh":1,"translation":[-0.0146600008,-0.171999991,-0.00299999956],"scale":[2.90545067e-05,2.90545067e-05,2.90545067e-05]},{"mesh":1,"translation":[-0.0146600008,-0.171999991,-0.00299999956],"scale":[2.90545067e-05,2.90545067e-05,2.90545067e-05]},{"mesh":1,"translation":[-0.0146600008,-0.171999991,-0.00299999956],"scale":[2.90545067e-05,2.90545067e-05,2.90545067e-05]},{"mesh":1,"translation":[-0.0146600008,-0.171999991,-0.00299999956],"scale":[2.90545067e-05,2.90545067e-05,2.90545067e-05]},{"mesh":1,"translation":[-0.0146600008,-0.171999991,-0.00299999956],"scale":[2.90545067e-05,2.90545067e-05,2.90545067e-05]},{"mesh":1,"translation":[-0.0146600008,-0.171999991,-0.00299999956],"scale":[2.90545067e-05,2.90545067e-05,2.90545067e-05]},{"mesh":1,"translation":[-0.0146600008,-0.171999991,-0.00299999956],"scale":[2.90545067e-05,2.90545067e-05,2.90545067e-05]},{"mesh":1,"translation":[-0.0146600008,-0.171999991,-0.00299999956],"scale":[2.90545067e-05,2.90545067e-05,2.90545067e-05]},{"mesh":1,"translation":[-0.0146600008,-0.171999991,-0.00299999956],"scale":[2.90545067e-05,2.90545067e-05,2.90545067e-05]},{"mesh":1,"translation":[-0.0146600008,-0.171999991,-0.00299999956],"scale":[2.90545067e-05,2.90545067e-05,2.90545067e-05]},{"mesh":1,"translation":[-0.0146600008,-0.171999991,-0.00299999956],"scale":[2.90545067e-05,2.90545067e-05,2.90545067e-05]},{"mesh":1,"translation":[-0.0146600008,-0.171999991,-0.00299999956],"scale":[2.90545067e-05,2.90545067e-05,2.90545067e-05]},{"mesh":2,"translation":[-0.0146600008,-0.171999991,-0.00299999956],"scale":[2.90545067e-05,2.90545067e-05,2.90545067e-05]},{"name":"Assembly 1","children":[16,18,20,22,24,26,28,30,32,34,36,38,40,42]},{"name":"occurrence of Part 5","matrix":[1,0,0,0,0,1,0,0,0,0,1,0,0.111292385,-0.105787128,0.0105835525,1],"children":[17]},{"name":"Part 5","children":[0]},{"name":"occurrence of Part 1","matrix":[-2.63677968e-16,1,0,0,-1,-2.63677968e-16,0,0,0,0,1,0,0.0644222125,-0.0850932226,0.0189134795,1],"children":[19]},{"name":"Part 1","children":[2]},{"name":"occurrence of Part 1","matrix":[-2.63677968e-16,1,0,0,-1,-2.63677968e-16,0,0,0,0,1,0,0.107429475,-0.0849403292,0.0192274097,1],"children":[21]},{"name":"Part 1","children":[3]},{"name":"occurrence of Part 1","matrix":[-2.63677968e-16,1,0,0,-1,-2.63677968e-16,0,0,0,0,1,0,0.128049687,-0.126973554,0.0190324485,1],"children":[23]},{"name":"Part 1","children":[4]},{"name":"occurrence of Part 1","matrix":[-2.63677968e-16,1,0,0,-1,-2.63677968e-16,0,0,0,0,1,0,0.107429475,-0.105940327,0.0192274097,1],"children":[25]},{"name":"Part 1","children":[5]},{"name":"occurrence of Part 1","matrix":[-2.63677968e-16,1,0,0,-1,-2.63677968e-16,0,0,0,0,1,0,0.0861392766,-0.127096787,0.0187421851,1],"children":[27]},{"name":"Part 1","children":[6]},{"name":"occurrence of Part 1","matrix":[-2.63677968e-16,1,0,0,-1,-2.63677968e-16,0,0,0,0,1,0,0.0644222125,-0.10609322,0.0189134795,1],"children":[29]},{"name":"Part 1","children":[7]},{"name":"occurrence of Part 1","matrix":[-2.63677968e-16,1,0,0,-1,-2.63677968e-16,0,0,0,0,1,0,0.128049687,-0.105973557,0.0190324485,1],"children":[31]},{"name":"Part 1","children":[8]},{"name":"occurrence of Part 1","matrix":[-2.63677968e-16,1,0,0,-1,-2.63677968e-16,0,0,0,0,1,0,0.107429475,-0.126940325,0.0192274097,1],"children":[33]},{"name":"Part 1","children":[9]},{"name":"occurrence of Part 5","matrix":[1,0,0,0,0,1,0,0,0,0,1,0,0.111851498,-0.145856559,0.0105733555,1],"children":[35]},{"name":"Part 5","children":[1]},{"name":"occurrence of Part 1","matrix":[-2.63677968e-16,1,0,0,-1,-2.63677968e-16,0,0,0,0,1,0,0.0644222125,-0.127093226,0.0189134795,1],"children":[37]},{"name":"Part 1","children":[10]},{"name":"occurrence of Part 1","matrix":[-2.63677968e-16,1,0,0,-1,-2.63677968e-16,0,0,0,0,1,0,0.0861392766,-0.106096782,0.0187421851,1],"children":[39]},{"name":"Part 1","children":[11]},{"name":"occurrence of Part 1","matrix":[-2.63677968e-16,1,0,0,-1,-2.63677968e-16,0,0,0,0,1,0,0.0861392766,-0.0850967839,0.0187421851,1],"children":[41]},{"name":"Part 1","children":[12]},{"name":"occurrence of Part 1","matrix":[-2.63677968e-16,1,0,0,-1,-2.63677968e-16,0,0,0,0,1,0,0.128049687,-0.0849735513,0.0190324485,1],"children":[43]},{"name":"Part 1","children":[13]}],"scenes":[{"name":"Root","nodes":[14,15]}],"scene":0}