{"asset":{"version":"2.0","generator":"gltfpack 1.0"},"extensionsUsed":["KHR_mesh_quantization"],"extensionsRequired":["KHR_mesh_quantization"],"buffers":[{"uri":"H-Viz-15-optimized.bin","byteLength":2928060}],"bufferViews":[{"buffer":0,"byteOffset":0,"byteLength":585168,"byteStride":4,"target":34962},{"buffer":0,"byteOffset":585168,"byteLength":1170336,"byteStride":8,"target":34962},{"buffer":0,"byteOffset":1755504,"byteLength":1172556,"target":34963}],"accessors":[{"bufferView":0,"byteOffset":0,"componentType":5120,"count":15976,"type":"VEC3","normalized":true},{"bufferView":1,"byteOffset":0,"componentType":5123,"count":15976,"type":"VEC3","min":[3110,4169,78],"max":[16383,11411,1583]},{"bufferView":2,"byteOffset":0,"componentType":5123,"count":58584,"type":"SCALAR"},{"bufferView":0,"byteOffset":63904,"componentType":5120,"count":15236,"type":"VEC3","normalized":true},{"bufferView":1,"byteOffset":127808,"componentType":5123,"count":15236,"type":"VEC3","min":[0,8284,78],"max":[6558,11411,1583]},{"bufferView":2,"byteOffset":117168,"componentType":5123,"count":56400,"type":"SCALAR"},{"bufferView":0,"byteOffset":124848,"componentType":5120,"count":15236,"type":"VEC3","normalized":true},{"bufferView":1,"byteOffset":249696,"componentType":5123,"count":15236,"type":"VEC3","min":[3110,8284,78],"max":[10210,9136,1003]},{"bufferView":2,"byteOffset":229968,"componentType":5123,"count":56400,"type":"SCALAR"},{"bufferView":0,"byteOffset":185792,"componentType":5120,"count":1480,"type":"VEC3","normalized":true},{"bufferView":1,"byteOffset":371584,"componentType":5123,"count":1480,"type":"VEC3","min":[421,2304,1218],"max":[15967,10290,1266]},{"bufferView":2,"byteOffset":342768,"componentType":5123,"count":4368,"type":"SCALAR"},{"bufferView":0,"byteOffset":191712,"componentType":5120,"count":24,"type":"VEC3","normalized":true},{"bufferView":1,"byteOffset":383424,"componentType":5123,"count":24,"type":"VEC3","min":[733,692,1758],"max":[15650,11903,1904]},{"bufferView":2,"byteOffset":351504,"componentType":5123,"count":36,"type":"SCALAR"},{"bufferView":0,"byteOffset":191808,"componentType":5120,"count":1480,"type":"VEC3","normalized":true},{"bufferView":1,"byteOffset":383616,"componentType":5123,"count":1480,"type":"VEC3","min":[421,2304,1218],"max":[15967,10290,1266]},{"bufferView":2,"byteOffset":351576,"componentType":5123,"count":4368,"type":"SCALAR"},{"bufferView":0,"byteOffset":197728,"componentType":5120,"count":35586,"type":"VEC3","normalized":true},{"bufferView":1,"byteOffset":395456,"componentType":5123,"count":35586,"type":"VEC3","min":[34,0,0],"max":[16349,15954,1948]},{"bufferView":2,"byteOffset":360312,"componentType":5123,"count":154884,"type":"SCALAR"},{"bufferView":0,"byteOffset":340072,"componentType":5120,"count":58810,"type":"VEC3","normalized":true},{"bufferView":1,"byteOffset":680144,"componentType":5123,"count":58810,"type":"VEC3","min":[0,1183,78],"max":[13269,9136,1583]},{"bufferView":2,"byteOffset":670080,"componentType":5123,"count":244710,"type":"SCALAR"},{"bufferView":0,"byteOffset":575312,"componentType":5120,"count":780,"type":"VEC3","normalized":true},{"bufferView":1,"byteOffset":1150624,"componentType":5123,"count":780,"type":"VEC3","min":[6000,4169,808],"max":[13269,15224,2192]},{"bufferView":2,"byteOffset":1159500,"componentType":5123,"count":2244,"type":"SCALAR"},{"bufferView":0,"byteOffset":578432,"componentType":5120,"count":740,"type":"VEC3","normalized":true},{"bufferView":1,"byteOffset":1156864,"componentType":5123,"count":740,"type":"VEC3","min":[16334,1183,1388],"max":[16383,1378,1583]},{"bufferView":2,"byteOffset":1163988,"componentType":5123,"count":2184,"type":"SCALAR"},{"bufferView":0,"byteOffset":581392,"componentType":5120,"count":944,"type":"VEC3","normalized":true},{"bufferView":1,"byteOffset":1162784,"componentType":5123,"count":944,"type":"VEC3","min":[6487,13120,2192],"max":[10042,14971,2679]},{"bufferView":2,"byteOffset":1168356,"componentType":5123,"count":2100,"type":"SCALAR"}],"materials":[{"name":"0.615686_0.811765_0.929412_0.000000_0.000000","pbrMetallicRoughness":{"baseColorFactor":[0.615686297,0.811764717,0.929411769,1],"metallicFactor":0},"doubleSided":true},{"name":"0.980392_0.713725_0.003922_0.000000_0.000000","pbrMetallicRoughness":{"baseColorFactor":[0.980392158,0.713725507,0.00392156886,1],"metallicFactor":0},"doubleSided":true},{"name":"0.498039_0.498039_0.498039_0.000000_0.000000","pbrMetallicRoughness":{"baseColorFactor":[0.498039216,0.498039216,0.498039216,1],"metallicFactor":0},"doubleSided":true},{"name":"0.972549_0.529412_0.003922_0.000000_0.000000","pbrMetallicRoughness":{"baseColorFactor":[0.972549021,0.529411793,0.00392156886,1],"metallicFactor":0},"doubleSided":true},{"name":"0.000000_0.000000_0.000000_0.000000_0.000000","pbrMetallicRoughness":{"baseColorFactor":[0,0,0,1],"metallicFactor":0},"doubleSided":true},{"name":"0.768627_0.886275_0.952941_0.000000_0.000000","pbrMetallicRoughness":{"baseColorFactor":[0.768627465,0.886274517,0.952941179,1],"metallicFactor":0},"doubleSided":true},{"name":"0.262745_0.282353_0.301961_0.000000_0.000000","pbrMetallicRoughness":{"baseColorFactor":[0.262745112,0.282352954,0.301960796,1],"metallicFactor":0},"doubleSided":true},{"name":"0.647059_0.647059_0.647059_0.000000_0.000000","pbrMetallicRoughness":{"baseColorFactor":[0.647058845,0.647058845,0.647058845,1],"metallicFactor":0},"doubleSided":true},{"name":"0.917647_0.917647_0.917647_0.000000_0.000000","pbrMetallicRoughness":{"baseColorFactor":[0.917647064,0.917647064,0.917647064,1],"metallicFactor":0},"doubleSided":true},{"name":"0.231373_0.380392_0.705882_0.000000_0.000000","pbrMetallicRoughness":{"baseColorFactor":[0.23137255,0.380392164,0.70588237,1],"metallicFactor":0},"doubleSided":true},{"name":"0.349020_0.376471_0.400000_0.000000_0.000000","pbrMetallicRoughness":{"baseColorFactor":[0.349019617,0.376470596,0.400000006,1],"metallicFactor":0},"doubleSided":true}],"meshes":[{"primitives":[{"attributes":{"NORMAL":0,"POSITION":1},"indices":2,"material":0},{"attributes":{"NORMAL":3,"POSITION":4},"indices":5,"material":1},{"attributes":{"NORMAL":6,"POSITION":7},"indices":8,"material":2},{"attributes":{"NORMAL":9,"POSITION":10},"indices":11,"material":3},{"attributes":{"NORMAL":12,"POSITION":13},"indices":14,"material":4},{"attributes":{"NORMAL":15,"POSITION":16},"indices":17,"material":5},{"attributes":{"NORMAL":18,"POSITION":19},"indices":20,"material":6},{"attributes":{"NORMAL":21,"POSITION":22},"indices":23,"material":7},{"attributes":{"NORMAL":24,"POSITION":25},"indices":26,"material":8},{"attributes":{"NORMAL":27,"POSITION":28},"indices":29,"material":9},{"attributes":{"NORMAL":30,"POSITION":31},"indices":32,"material":10}]}],"nodes":[{"mesh":0,"translation":[-0.241665199,-0.103904627,0.30250001],"scale":[2.053348e-05,2.053348e-05,2.053348e-05]}],"scenes":[{"name":"Root","nodes":[0]}],"scene":0}